<svg width="32" height="32" viewBox="0 0 32 32" fill="none" xmlns="http://www.w3.org/2000/svg">
<path d="M9.52228 19.3665L6.67228 20.5905L9.31203 21.719L12.3723 20.5905L9.52228 19.3665ZM5.23778 20.8965L5.14228 26.405L9.31203 28.2412V22.5222L5.23778 20.8965ZM13.8068 20.8965L10.0385 22.3312V27.725L13.8068 26.1947V20.8965ZM18.3015 3.75873L15.4325 4.98273L18.0913 6.11148L21.1515 4.98273L18.3015 3.75873ZM14.323 5.38448V10.893L17.8808 11.926L17.9955 6.91448L14.323 5.38448ZM22.28 5.69048L18.9135 7.12498V12.538L22.28 11.0077V5.69048ZM4.82653 11.5117L1.97678 12.736L4.61628 13.8645L7.67653 12.736L4.82653 11.5117ZM0.542033 13.042L0.446533 18.5505L4.61628 20.3867V14.6677L0.542033 13.042ZM9.11078 13.042L5.34303 14.4765V19.87L9.11078 18.34V13.042ZM14.0075 11.3077L11.1575 12.532L13.797 13.6605L16.8573 12.532L14.0075 11.3077ZM9.72328 12.838L9.62753 18.3467L13.7973 20.183V14.4637L9.72328 12.838ZM18.292 12.838L14.524 14.2725V19.6665L18.292 18.1362V12.838ZM27.269 3.75873L24.4193 4.98273L27.059 6.11148L30.1193 4.98273L27.269 3.75873ZM22.9848 5.28898L22.8893 10.7975L27.059 12.6335V6.91448L22.9848 5.28898ZM31.5535 5.28898L27.7858 6.72348V12.1172L31.5535 10.5872V5.28898Z" fill="#5CDEFF"/>
</svg>
