<svg width="32" height="32" viewBox="0 0 32 32" fill="none" xmlns="http://www.w3.org/2000/svg">
<path d="M10.7362 1.11746H20.0839L10.3803 29.8685C10.2806 30.164 10.0907 30.4208 9.8374 30.6027C9.58406 30.7846 9.28003 30.8825 8.96815 30.8824H1.69349C1.45723 30.8824 1.22437 30.8261 1.01415 30.7183C0.80393 30.6104 0.622379 30.4541 0.484493 30.2623C0.346647 30.0704 0.256491 29.8485 0.221491 29.6148C0.18649 29.3811 0.207652 29.1425 0.283224 28.9187L9.32405 2.13117C9.42375 1.83565 9.61363 1.57884 9.86695 1.39691C10.1203 1.21498 10.4243 1.11708 10.7362 1.117V1.11746Z" fill="#5CDEFF"/>
<path d="M24.3199 20.4019H9.49665C9.35881 20.4016 9.22409 20.4429 9.11006 20.5203C8.99603 20.5977 8.90798 20.7078 8.8574 20.836C8.80682 20.9642 8.79606 21.1047 8.82652 21.2391C8.85698 21.3736 8.92724 21.4957 9.02815 21.5896L18.5532 30.4801C18.8305 30.7388 19.1956 30.8826 19.5749 30.8826H27.9684L24.3199 20.4019Z" fill="#5CDEFF"/>
<path d="M10.7365 1.11744C10.4212 1.11626 10.1138 1.21591 9.85915 1.40183C9.60452 1.58776 9.41601 1.85023 9.32114 2.1509L0.294789 28.8943C0.214208 29.1189 0.188917 29.3597 0.221056 29.5962C0.253195 29.8327 0.341819 30.058 0.479431 30.253C0.617044 30.448 0.799598 30.607 1.01165 30.7166C1.22371 30.8261 1.45902 30.883 1.6977 30.8824H9.16031C9.43823 30.8327 9.698 30.7102 9.91307 30.5273C10.1281 30.3444 10.2908 30.1077 10.3845 29.8413L12.1844 24.5364L18.6142 30.5334C18.8836 30.7563 19.2216 30.8795 19.5712 30.8824H27.9335L24.2659 20.4017L13.5745 20.4042L20.118 1.11744H10.7365Z" fill="#5CDEFF"/>
<path d="M22.6757 2.12975C22.5762 1.83465 22.3865 1.57822 22.1335 1.39661C21.8805 1.21499 21.5769 1.11735 21.2654 1.11743H10.8477C11.159 1.11747 11.4626 1.21516 11.7155 1.39676C11.9685 1.57836 12.1581 1.83473 12.2577 2.12975L21.2987 28.9184C21.3744 29.1423 21.3957 29.381 21.3608 29.6147C21.3259 29.8485 21.2358 30.0705 21.098 30.2625C20.9602 30.4545 20.7786 30.611 20.5683 30.7188C20.358 30.8267 20.1251 30.8829 19.8887 30.8828H30.307C30.5432 30.8827 30.776 30.8263 30.9862 30.7184C31.1963 30.6104 31.3778 30.454 31.5155 30.2621C31.6533 30.0701 31.7433 29.8482 31.7783 29.6145C31.8133 29.3809 31.7922 29.1423 31.7168 28.9184L22.6757 2.12975Z" fill="#5CDEFF"/>
</svg>
