<svg width="34" height="34" viewBox="0 0 34 34" fill="none" xmlns="http://www.w3.org/2000/svg">
<g clip-path="url(#clip0_146_97)">
<path d="M26.5574 16.5318L26.5574 10.9895C26.5364 10.0678 26.1608 9.18975 25.5089 8.53785C24.857 7.88595 23.9789 7.51042 23.0572 7.48935L17.5149 7.48935C17.1217 7.49618 16.7469 7.6572 16.4712 7.93772C16.1955 8.21823 16.041 8.59581 16.041 8.98912C16.041 9.38243 16.1955 9.76 16.4712 10.0405C16.7469 10.321 17.1217 10.4821 17.5149 10.4889L21.4465 10.4889L8.55804 23.4098C8.27673 23.6911 8.1187 24.0727 8.1187 24.4705C8.1187 24.8683 8.27673 25.2499 8.55804 25.5312V25.5312C8.83934 25.8125 9.22087 25.9705 9.6187 25.9705C10.0165 25.9705 10.3981 25.8125 10.6794 25.5312L23.5579 12.6201L23.5579 16.5318C23.5544 16.731 23.5907 16.9288 23.6645 17.1138C23.7383 17.2988 23.8482 17.4672 23.9878 17.6093C24.1274 17.7514 24.2939 17.8642 24.4776 17.9412C24.6613 18.0182 24.8585 18.0579 25.0577 18.0579C25.2568 18.0579 25.454 18.0182 25.6377 17.9412C25.8214 17.8642 25.9879 17.7514 26.1275 17.6093C26.2671 17.4672 26.377 17.2988 26.4508 17.1138C26.5247 16.9288 26.5609 16.731 26.5574 16.5318V16.5318Z" fill="#5CDEFF"/>
</g>
<defs>
<clipPath id="clip0_146_97">
<rect width="24" height="24" fill="white" transform="translate(17 0.0294189) rotate(45)"/>
</clipPath>
</defs>
</svg>
