<svg width="40" height="40" viewBox="0 0 40 40" fill="none" xmlns="http://www.w3.org/2000/svg">
<path fill-rule="evenodd" clip-rule="evenodd" d="M3.48628 17.1341C3.41034 17.1341 3.39159 17.096 3.4294 17.0394L3.82722 16.5278C3.86472 16.471 3.95972 16.4331 4.03534 16.4331H10.7969C10.8728 16.4331 10.8916 16.49 10.8538 16.5469L10.5319 17.0394C10.4941 17.096 10.3994 17.1528 10.3425 17.1528L3.48628 17.1341ZM0.626278 18.8763C0.550653 18.8763 0.53159 18.8388 0.569403 18.7816L0.967215 18.2703C1.00503 18.2135 1.09972 18.1756 1.17565 18.1756H9.8119C9.88753 18.1756 9.92565 18.2325 9.90659 18.2894L9.75503 18.7438C9.73628 18.8197 9.66034 18.8575 9.58471 18.8575L0.626278 18.8763ZM5.2094 20.6188C5.13378 20.6188 5.11503 20.5619 5.15284 20.505L5.41784 20.0316C5.45597 19.9747 5.53159 19.9181 5.60753 19.9181H9.39503C9.47097 19.9181 9.50878 19.9747 9.50878 20.0506L9.47128 20.505C9.47128 20.581 9.39534 20.6378 9.33847 20.6378L5.2094 20.6188ZM24.8688 16.7931C23.6753 17.0963 22.861 17.3235 21.6869 17.6263C21.4025 17.7022 21.3838 17.721 21.1375 17.4369C20.8535 17.115 20.645 16.9066 20.2475 16.7172C19.0541 16.1303 17.8988 16.3006 16.8194 17.0016C15.5316 17.8347 14.8688 19.0656 14.8875 20.5997C14.9063 22.115 15.9482 23.365 17.4444 23.5735C18.7322 23.7438 19.8119 23.2891 20.6641 22.3235C20.8344 22.115 20.986 21.8878 21.1753 21.6225H17.52C17.1225 21.6225 17.0278 21.3763 17.1603 21.0544C17.4066 20.4672 17.861 19.4825 18.126 18.99C18.1832 18.8763 18.3157 18.6869 18.5997 18.6869H25.4935C25.456 19.1985 25.456 19.7097 25.38 20.2213C25.1716 21.5847 24.6603 22.8347 23.8269 23.9331C22.4632 25.7325 20.6832 26.8497 18.4291 27.1528C16.5732 27.3991 14.8497 27.0391 13.3347 25.9028C11.9332 24.8422 11.1378 23.4406 10.9294 21.6985C10.6832 19.6341 11.2891 17.7778 12.5391 16.1491C13.8838 14.3878 15.6641 13.2703 17.8422 12.8725C19.6225 12.5506 21.3269 12.7591 22.861 13.8006C23.8647 14.4635 24.5844 15.3725 25.0578 16.471C25.1716 16.6416 25.096 16.7363 24.8685 16.7928L24.8688 16.7931Z" fill="#5CDEFF"/>
<path d="M31.1375 27.2666C29.414 27.2285 27.8418 26.7363 26.5162 25.5997C25.3987 24.6341 24.6981 23.4029 24.4709 21.9444C24.13 19.8044 24.7168 17.9104 26.005 16.225C27.3875 14.4066 29.054 13.4597 31.3081 13.0619C33.2397 12.7213 35.0581 12.9107 36.7056 14.0279C38.2018 15.0507 39.1297 16.4332 39.3759 18.2513C39.6978 20.8082 38.9593 22.8916 37.1978 24.6719C35.9478 25.9407 34.4137 26.7363 32.6525 27.096C32.1412 27.1907 31.6297 27.2097 31.1375 27.2666ZM35.645 19.615C35.6262 19.3688 35.6262 19.1794 35.5881 18.99C35.2475 17.115 33.5237 16.0544 31.7247 16.4713C29.9631 16.8688 28.8268 17.9863 28.4103 19.7666C28.0693 21.2438 28.789 22.74 30.1525 23.346C31.1943 23.8007 32.2359 23.7438 33.2397 23.2325C34.7359 22.456 35.5503 21.2438 35.645 19.615Z" fill="#5CDEFF"/>
</svg>
