<svg width="32" height="32" viewBox="0 0 32 32" fill="none" xmlns="http://www.w3.org/2000/svg">
<path d="M15.9062 31.9562C15.5375 31.9125 14.9625 31.8062 14.65 31.7187L14.325 31.625L14.15 31.1437C14.05 30.875 13.8125 30.1375 13.625 29.5L13.275 28.3437L12.7812 28.3062C12.025 28.25 11.5938 28.1125 10.35 27.5375C9.73125 27.25 9.13125 26.9812 9.01875 26.9437C8.9125 26.9 8.7625 26.7937 8.68125 26.7125C8.55 26.5687 8.53125 26.4812 8.48125 25.5312L8.43125 24.5L8.08125 24.175C6.15625 22.3625 4.8625 19.8562 4.46875 17.1812C4.34375 16.3125 4.34375 14.625 4.46875 13.7562C4.85625 11.1062 6.15 8.5875 8.025 6.83125L8.55 6.3375L8.625 5.81875C8.74375 4.93125 9.0625 4.2875 9.53125 3.9875C9.66875 3.89375 9.78125 3.74375 9.85 3.5625C10.1813 2.7 10.7188 2.23125 12.5 1.25C13.6625 0.606247 14.7687 0.218747 15.8438 0.0624973C16.425 -0.0187527 17.65 -0.0187527 18.2062 0.0687473C19.8 0.306247 20.6937 0.756247 21.8375 1.89375C22.6125 2.66875 23.0563 3.28125 23.3188 3.9625C23.5375 4.525 23.775 5.6 23.8438 6.30625L23.8875 6.76875L24.4813 7.43125C26.4875 9.66875 27.5625 12.4812 27.5625 15.4687C27.5625 17.3687 27.1375 19.1875 26.3062 20.825L25.9875 21.4562L26.1812 21.6062C26.4687 21.8312 26.6562 22.2 26.9688 23.15C27.2 23.8437 27.25 24.0875 27.25 24.4562C27.25 25.2187 26.975 26.0187 26.575 26.3937C26.2438 26.7062 25.3688 26.8312 24.325 26.7125C23.9813 26.675 23.9125 26.6437 23.7938 26.4812L23.6562 26.3L23.125 26.3312C22.475 26.375 22.125 26.4812 22.125 26.6312C22.125 26.8375 22.0437 26.9437 21.8062 27.0687C21.575 27.1812 21.5625 27.2062 21.5625 27.4687C21.5625 27.625 21.6313 28.075 21.7188 28.475C22.025 29.8937 21.9 30.1562 20.7875 30.4062C20.6125 30.4437 20.6125 30.4437 20.65 30.8125C20.7312 31.525 20.3563 31.8125 19.1938 31.9312C18.6063 31.9937 16.35 32.0125 15.9062 31.9562V31.9562Z" fill="#222222"/>
<path d="M12.8439 27.5562C12.2001 27.4687 11.3189 27.1375 10.2251 26.575C9.43137 26.1688 9.16262 26 9.15012 25.9062C9.14387 25.8375 9.11887 25.4187 9.10012 24.9688C8.99387 22.7313 8.50012 20.2938 7.77512 18.4688C7.61887 18.0687 7.50012 17.7313 7.51262 17.7188C7.51887 17.7125 7.88137 17.4437 8.31262 17.125C9.19387 16.475 10.3314 15.7813 11.0064 15.4875L11.4564 15.2875L11.9939 15.8562C12.5689 16.475 12.8751 16.6813 13.9376 17.1938L14.6064 17.5125L14.7189 17.9937C14.7814 18.2562 14.9251 18.7688 15.0376 19.1375C15.2064 19.6625 15.2939 19.8375 15.4439 19.9625C15.6501 20.1375 15.7751 20.1625 16.0251 20.0625C16.2376 19.9813 16.2314 20.0375 15.9689 20.4C15.7126 20.7562 15.6939 20.9875 15.8939 21.1688C16.0314 21.3 17.6689 22.1313 18.1564 22.3188L18.4064 22.4188L17.8126 22.4562C17.4876 22.4812 16.7751 22.525 16.2251 22.5625C15.3439 22.625 14.2564 22.7313 13.4251 22.85C13.1439 22.8875 13.1314 22.8875 13.0814 22.7125C13.0251 22.5062 13.0189 21.4937 13.0626 20.4875C13.0939 19.8125 13.0501 19.6375 12.8814 19.7437C12.7376 19.8312 12.7001 20.2812 12.7689 21.1125C12.8376 21.975 12.7876 22.6125 12.6564 22.6625C12.6126 22.6813 12.4251 22.5938 12.2376 22.475C12.0564 22.35 11.8876 22.25 11.8626 22.25C11.7689 22.25 11.8126 22.4875 11.9376 22.6437C12.0064 22.7312 12.0626 22.8437 12.0626 22.9C12.0626 23.0062 11.8751 23.125 11.7001 23.125C11.5689 23.125 11.3314 23.35 11.4001 23.4188C11.4189 23.4438 11.7251 23.4563 12.0814 23.45C12.4314 23.4438 12.7501 23.4562 12.7939 23.4875C12.8376 23.5125 12.9001 23.8313 12.9376 24.225C12.9751 24.6063 13.0876 25.5063 13.1876 26.225C13.3564 27.4625 13.3626 27.6375 13.2626 27.6187C13.2376 27.6125 13.0501 27.5875 12.8439 27.5562V27.5562ZM20.1001 26.4813C20.0189 25.8688 19.9251 23.3 19.9876 23.2375C20.0189 23.2062 20.2376 23.175 20.4751 23.1688L20.9001 23.1562L20.9751 23.4937C21.0189 23.6812 21.1001 24.3812 21.1564 25.0562C21.2126 25.7312 21.2626 26.3375 21.2689 26.4062C21.2814 26.5312 21.1501 26.575 20.3689 26.7062C20.1376 26.7375 20.1376 26.7375 20.1001 26.4813ZM20.5439 22.2062C20.6376 22.0375 20.8939 21.6125 21.1189 21.25C21.3439 20.8875 21.7314 20.2438 21.9814 19.8188L22.4439 19.0438L22.2626 18.8188C21.9939 18.4813 21.9939 18.4687 22.1064 18.2125C22.1814 18.0312 22.2126 17.7812 22.2126 17.25C22.2126 16.4 22.1001 15.925 21.8001 15.5875C21.6251 15.3937 21.5751 15.3687 21.3626 15.3875C21.2314 15.4 21.1314 15.3937 21.1376 15.3687C21.1501 15.3437 21.3314 15.1813 21.5376 15.0063L21.9251 14.6875L22.6439 15.3562C23.0376 15.7312 23.5064 16.1625 23.6814 16.325C24.0751 16.6875 24.0814 16.7437 23.7876 17.9562C23.4751 19.2562 22.7064 21.45 22.3751 21.9875C22.2126 22.25 22.1001 22.2875 21.3251 22.3375C20.9689 22.3562 20.6251 22.4 20.5626 22.4375C20.3689 22.5438 20.3626 22.5125 20.5439 22.2062V22.2062Z" fill="#222222"/>
<path d="M20.2189 21.9438C20.3377 21.5688 20.4502 20.8375 20.5377 19.875C20.6564 18.6625 20.6689 18.625 21.0814 18.625C21.3814 18.625 21.6752 18.7562 21.9064 19L22.0814 19.1812L21.6877 19.8563C21.1564 20.7688 20.3002 22.0625 20.2314 22.0625C20.2064 22.0625 20.1939 22.0125 20.2189 21.9438Z" fill="#222222"/>
<path d="M7.97505 23.0562C4.3688 19.0812 4.07505 12.9812 7.28755 8.7125C7.67505 8.2 8.5438 7.25 8.6313 7.25C8.6563 7.25 8.70005 7.34375 8.7188 7.45625C8.75005 7.61875 8.71255 7.75 8.55005 8.0625C8.35005 8.45625 8.3438 8.475 8.35005 9.24375C8.35005 9.95 8.3688 10.0813 8.52505 10.5C8.86255 11.4 9.3813 11.9563 10.0875 12.1938L10.4 12.3L10.5125 12.7563C10.575 13 10.75 13.4375 10.9063 13.7188C11.2125 14.2812 11.25 14.4875 11.0813 14.6438C11.0188 14.6938 10.475 15.025 9.87505 15.375C9.27505 15.7312 8.55005 16.1688 8.26255 16.35C7.9961 16.5251 7.72298 16.6898 7.4438 16.8438C7.03755 17.05 6.81255 17.3187 6.81255 17.6187C6.81255 17.8375 7.3438 19.4563 7.7313 20.4375C7.83755 20.6937 7.9813 21.1438 8.05005 21.4375C8.20005 22.0625 8.3938 23.2813 8.36255 23.3813C8.35005 23.425 8.17505 23.275 7.97505 23.0562V23.0562ZM22.9375 22.0812C22.9375 22.0562 23.1063 21.55 23.3188 20.9438C23.9438 19.1313 24.5688 17.0563 24.6063 16.6875C24.6438 16.25 24.55 16.1 23.75 15.3875C22.6 14.3625 22.375 14.125 22.375 13.9563C22.375 13.8688 22.5063 13.5563 22.6625 13.2688C22.975 12.6938 23.175 12.1562 23.4125 11.2437C23.5938 10.5375 23.8125 9.1125 23.8125 8.61875C23.8125 8.425 23.8313 8.175 23.85 8.06875L23.8938 7.86875L24.05 8.0125C24.7125 8.63125 25.75 10.3687 26.1813 11.5875C26.6625 12.9437 26.8313 13.975 26.8313 15.4688C26.8313 16.625 26.7625 17.2625 26.525 18.1938C26.3 19.0938 26.0313 19.8188 25.6188 20.6375L25.2438 21.3625L24.8438 21.4312C24.4438 21.5 23.95 21.6687 23.3 21.9562C23.1 22.0437 22.9375 22.1 22.9375 22.0812V22.0812ZM15.5375 19.4875C15.4938 19.4062 15.3563 19.075 15.2438 18.75C15.05 18.2 15.0313 18.1 15.0313 17.375C15.0313 16.5125 15.1188 16.225 15.4 16.15C15.65 16.0875 16.5313 16.3688 17.3 16.7563C17.7 16.9625 18.0688 17.125 18.1125 17.125C18.2063 17.125 18.2125 17.2875 18.1188 17.35C18.0813 17.375 17.9188 17.425 17.7563 17.4688C17.4563 17.55 17.4625 17.5625 17.9563 17.6875C18.2375 17.7625 18.25 17.775 18.25 18C18.25 18.2125 18.2125 18.2563 17.7375 18.6375C17.0438 19.1875 16.8625 19.2875 16.2938 19.4688C15.6938 19.6625 15.65 19.6625 15.5375 19.4875ZM20.3438 18.2125C19.6625 18.0937 19.6875 18.1125 19.6875 17.7563C19.6875 17.4125 19.7813 17.3125 20.0938 17.3125C20.1875 17.3125 20.2438 17.2875 20.2188 17.25C20.2 17.2188 20.0625 17.1875 19.9188 17.1875C19.6813 17.1875 19.6438 17.1688 19.5813 17C19.5125 16.8187 19.5125 16.8125 20.0125 16.5C21.3625 15.6313 21.6313 15.725 21.8125 17.1437C21.8688 17.6125 21.8438 18 21.7375 18.2062C21.6688 18.3375 21.0875 18.3437 20.3438 18.2125ZM18.6563 17.9125C18.5625 17.8438 18.5375 17.7437 18.5313 17.4625C18.5313 17.1062 18.5375 17.1 18.7313 17.0438C19.2625 16.8875 19.5313 17.7 19.025 17.9312C18.825 18.0187 18.8 18.0188 18.6563 17.9125Z" fill="#5CDEFF"/>
<path d="M16.1563 31.2438C15.9501 31.2125 15.5313 31.125 15.2188 31.05L14.6563 30.9063L14.4001 30.0313C13.9001 28.3563 13.5188 26.4688 13.2563 24.4375C13.1938 23.9375 13.1626 23.5063 13.1876 23.4813C13.2626 23.3938 15.2376 23.1375 16.3876 23.0625C17.1938 23.0125 17.7188 23.0125 18.3251 23.0563C19.3938 23.1438 19.5126 23.1813 19.5688 23.4063C19.6001 23.5 19.6501 24.2188 19.6876 24.9938C19.7313 25.7688 19.7688 26.425 19.7876 26.4438C19.8001 26.4625 19.8376 27.1938 19.8751 28.0688C19.9376 29.5375 20.0188 30.6313 20.1001 30.8875C20.1376 31.0125 19.9313 31.0875 19.1813 31.2188C18.6001 31.3188 16.8001 31.3375 16.1563 31.2438V31.2438ZM20.2251 29.3313C20.2063 29.0625 20.1751 28.5063 20.1501 28.0875C20.1063 27.2375 20.0813 27.2875 20.6126 27.2125L20.9126 27.175L21.0813 28.0375C21.1751 28.5188 21.2501 29.0625 21.2501 29.2563V29.6063L20.8876 29.7125C20.2688 29.8875 20.2688 29.8875 20.2251 29.3313V29.3313ZM24.2501 26.2563C24.1063 26.15 24.2438 26.0938 24.8938 25.9625C25.7438 25.8 25.4626 25.7188 24.2126 25.775L23.1938 25.8125L23.1626 25.55C23.1438 25.4 23.0938 24.9875 23.0563 24.625C23.0208 24.25 22.9687 23.8767 22.9001 23.5063C22.8126 23.0875 22.8126 23.0375 22.9063 22.9375C23.0438 22.7875 23.4626 22.5938 24.0938 22.375C24.3688 22.2813 24.7126 22.1438 24.8563 22.0688C25.4938 21.75 25.9813 22.0688 26.2751 22.9875C26.7626 24.5313 26.7688 25.25 26.3126 25.8313C26.0626 26.1438 25.7313 26.2625 25.0001 26.2938C24.5938 26.3125 24.3063 26.2938 24.2501 26.2563V26.2563ZM25.3751 24.6813C25.1501 24.5875 24.3688 24.5375 24.0876 24.5938L23.8438 24.65L24.0626 24.6875C24.1813 24.7125 24.5626 24.7375 24.9063 24.7375C25.3876 24.7438 25.4938 24.725 25.3751 24.6813V24.6813ZM25.0376 23.8938C25.3251 23.85 25.3313 23.8438 25.1563 23.8063C24.8313 23.7313 24.2251 23.75 24.0313 23.8438C23.8501 23.925 23.8626 23.925 24.2876 23.9313C24.5313 23.9375 24.8688 23.9188 25.0376 23.8938ZM24.4376 23.175C24.8688 22.925 24.9251 22.875 24.7501 22.9063C24.2876 22.9938 23.9438 23.1375 23.7126 23.35L23.4688 23.5688L23.6876 23.525C23.8063 23.5063 24.1438 23.35 24.4376 23.175ZM21.9751 25.9938C21.9626 25.9438 21.9063 25.5563 21.8501 25.125C21.7938 24.6938 21.7063 24.0625 21.6501 23.725C21.5938 23.3563 21.5813 23.0813 21.6126 23.05C21.6438 23.0188 21.8063 23 21.9751 23.0125L22.2813 23.0313L22.4313 23.4063C22.6313 23.9125 22.7438 24.6 22.7501 25.3C22.7501 25.875 22.7501 25.8813 22.5813 25.9438C22.2688 26.0625 22.0063 26.0875 21.9751 25.9938V25.9938ZM18.4688 21.7875C18.0251 21.6063 17.3376 21.3 16.9501 21.1C16.3188 20.775 16.2501 20.725 16.2876 20.6063C16.4251 20.1625 16.8313 19.7063 17.4813 19.2625C17.7001 19.1188 17.8876 19 17.9001 19C18.0188 19 18.8376 20.5688 19.3063 21.675C19.4688 22.0625 19.4813 22.125 19.3876 22.125C19.3313 22.125 18.9188 21.975 18.4688 21.7875ZM20.2188 21.9438C20.3376 21.5688 20.4501 20.8375 20.5376 19.875C20.6188 19.0563 20.6688 18.7625 20.7376 18.7063C20.9751 18.5125 21.6063 18.6813 21.9251 19.0188L22.0688 19.1688L21.9126 19.4438C21.5688 20.0625 21.2938 20.5125 20.8001 21.2688C20.3188 22.0063 20.1251 22.2313 20.2188 21.9438V21.9438ZM19.8313 21.7813C19.6825 21.4721 19.5408 21.1595 19.4063 20.8438C19.0001 19.9 18.7813 19.4688 18.4876 19.0438C18.2501 18.6938 18.2438 18.6688 18.3501 18.5563C18.4126 18.4875 18.5438 18.4375 18.6501 18.4375C18.7563 18.4313 18.9126 18.3938 19.0001 18.3438C19.2313 18.2125 19.3813 18.2313 19.7063 18.4375C19.8688 18.5375 20.0751 18.6438 20.1626 18.6625L20.3313 18.7063L20.2876 19.7C20.2438 20.675 20.1313 21.5625 20.0126 21.875C19.9563 22.0313 19.9563 22.0313 19.8313 21.7813V21.7813ZM19.9063 20.2813C19.9063 20.125 19.8813 20.0938 19.7501 20.0938C19.6501 20.0938 19.5876 20.1313 19.5751 20.2063C19.5376 20.3938 19.6126 20.5125 19.7626 20.4875C19.8751 20.475 19.9063 20.4313 19.9063 20.2813ZM19.7126 19.2813C19.7688 19.125 19.6813 19 19.5251 19C19.4376 19 19.3563 19.0438 19.3376 19.0938C19.2751 19.25 19.3626 19.375 19.5251 19.375C19.6063 19.375 19.6876 19.3313 19.7126 19.2813ZM14.0313 16.8188C13.5876 16.6625 13.2376 16.475 13.1001 16.3188C12.9626 16.1625 13.0063 15.9625 13.1751 16.0313C13.3688 16.1125 13.7126 16.175 14.2063 16.2188C14.7376 16.2625 14.7438 16.2688 14.6188 16.7063C14.5501 16.9688 14.4938 16.9813 14.0313 16.8188V16.8188ZM18.3376 16.6313C18.1251 16.575 17.6251 16.3125 17.6251 16.25C17.6251 16.225 17.8313 16.2188 18.0813 16.2375C18.4188 16.2563 18.7063 16.225 19.1438 16.125C19.4813 16.05 19.7813 16 19.8126 16.0125C19.8501 16.025 19.6876 16.1813 19.4563 16.3625C19.0188 16.7063 18.8376 16.75 18.3376 16.6313V16.6313ZM14.2188 15.9375C13.6251 15.875 12.9563 15.6688 12.6126 15.4375C12.2876 15.2188 11.9688 14.7813 11.6813 14.1438C11.4001 13.525 11.1251 12.7063 11.0876 12.3313C11.0501 12.025 11.0563 11.9938 11.2751 11.725C11.4313 11.5438 11.5001 11.3938 11.4876 11.3C11.4626 11.1125 11.3188 11.1375 10.9813 11.3813C10.5376 11.7 9.96882 11.6 9.54382 11.1313C9.10007 10.6375 8.76882 9.76877 8.83132 9.24377C8.94382 8.28752 9.91257 7.61877 10.6688 7.97502C10.9001 8.08752 11.2001 8.54377 11.3126 8.95627C11.3751 9.17502 11.3938 9.18752 11.6313 9.18752C11.7688 9.18752 11.9751 9.14377 12.0938 9.10002C12.3626 8.98752 12.3751 8.84377 12.1751 8.10627C12.0001 7.43752 12.0063 6.85627 12.2126 5.88127C12.3876 5.05627 12.4188 4.41252 12.3063 3.96877C12.2376 3.70627 12.2501 3.66877 12.4313 3.38752C12.9938 2.51252 14.6688 1.28752 15.8751 0.868772C16.3938 0.693772 17.5251 0.675022 18.2688 0.837522C19.3313 1.06877 20.4876 1.56877 21.0376 2.03752C21.3001 2.26252 22.3126 3.50002 22.3126 3.60002C22.3126 3.61252 22.2063 3.61252 22.0751 3.58752C21.5688 3.50627 21.0626 3.80002 21.0626 4.16877C21.0626 4.31252 21.0688 4.31252 21.2001 4.22502C21.4438 4.05002 21.9563 4.09377 22.3876 4.32502C23.0376 4.66877 23.2688 5.12502 23.3813 6.28752C23.4876 7.35627 23.4188 9.48752 23.2626 10.2625C23.0001 11.5 22.6001 12.5063 21.9563 13.5C21.4438 14.2875 21.2126 14.55 20.7438 14.8563C19.8376 15.4375 18.8938 15.75 18.0313 15.75C17.4126 15.75 17.0188 15.6375 16.2876 15.2625C15.6188 14.9188 14.8251 14.1938 14.2001 13.3625C13.9751 13.0625 13.7813 12.825 13.7626 12.8375C13.6938 12.9125 13.9251 13.3688 14.2501 13.8C14.6751 14.3688 15.5626 15.2375 15.9313 15.4438C16.0688 15.525 16.1876 15.6188 16.1876 15.6438C16.1876 15.675 16.0376 15.675 15.8563 15.6563C15.4626 15.6063 15.0688 15.7 14.9063 15.875C14.8438 15.9438 14.7626 15.9938 14.7251 15.9938C14.6876 15.9875 14.4626 15.9625 14.2188 15.9375V15.9375ZM20.1438 13.75C20.2688 13.7125 20.4313 13.6188 20.5063 13.5438L20.6313 13.4063L19.5813 13.3688C18.1313 13.3188 17.7438 13.1938 17.2313 12.625C17.0688 12.45 16.9001 12.3125 16.8438 12.325C16.7813 12.3375 16.8751 12.5 17.1813 12.875C17.7501 13.575 17.8813 13.6875 18.2313 13.7875C18.5813 13.8875 19.7751 13.8625 20.1438 13.75ZM20.2251 12.3938C20.2063 12.2625 20.1876 12.1125 20.1876 12.0563C20.1876 11.9688 20.0501 11.95 19.1751 11.9188C18.2563 11.8938 17.8376 11.8313 17.3438 11.65C17.1126 11.5688 17.6376 12.0625 17.9438 12.225C18.3813 12.4438 19.1313 12.6 19.8688 12.6188L20.2688 12.625L20.2251 12.3938ZM21.1126 12.4688C21.5188 12.3438 21.9751 11.9813 22.2626 11.5563C22.3876 11.3688 22.4813 11.2125 22.4688 11.2C22.4626 11.1875 22.2001 11.3063 21.8876 11.4625C21.5813 11.6188 21.1938 11.7813 21.0251 11.8188C20.8971 11.8463 20.77 11.8776 20.6438 11.9125C20.5938 11.925 20.5626 12.05 20.5626 12.25C20.5626 12.6125 20.5876 12.6188 21.1126 12.4688V12.4688ZM20.2688 11.3188C20.7688 11.1875 21.0438 11.0688 21.6563 10.7C22.0126 10.4938 22.0438 10.4563 22.1438 10.1188C22.2001 9.91877 22.2501 9.72502 22.2501 9.68127C22.2501 9.64377 22.0063 9.35627 21.7126 9.04377C20.8063 8.07502 20.2501 7.27502 19.9001 6.40627C19.8563 6.31252 19.8438 6.35002 19.8251 6.56877C19.7876 7.13127 20.1876 7.90002 21.0813 8.97502C21.7126 9.72502 21.8001 9.91252 21.6813 10.2C21.6188 10.3625 21.4938 10.4438 20.9751 10.6938C20.2251 11.0438 19.9501 11.125 19.5251 11.125C19.1501 11.125 18.9563 10.9625 18.8938 10.5938C18.8626 10.4063 18.8438 10.3813 18.7938 10.4688C18.7063 10.6313 18.7313 11.025 18.8438 11.2438C18.9376 11.4313 18.9563 11.4375 19.3688 11.4375C19.6001 11.4375 20.0063 11.3813 20.2688 11.3188V11.3188ZM10.0438 9.83127C10.0626 9.29377 10.1688 9.06252 10.4001 9.06252C10.5688 9.06252 10.6813 9.18127 10.8813 9.56252C11.0251 9.84377 11.0313 9.84377 11.0501 9.66252C11.0813 9.38752 10.8938 8.96877 10.6188 8.72502C10.4188 8.53752 10.3251 8.50002 10.1001 8.50002C9.86882 8.50002 9.80007 8.53127 9.66257 8.69377C9.46257 8.93127 9.45632 9.03127 9.65007 8.90627C9.82507 8.78752 10.0313 8.84377 9.95632 8.99377C9.85632 9.18752 9.90632 10.3125 10.0126 10.3125C10.0251 10.3125 10.0376 10.1 10.0438 9.83127V9.83127ZM17.9813 8.08752C18.1688 7.94377 18.2251 7.81252 18.1876 7.56252C18.1813 7.51252 18.0688 7.35627 17.9376 7.21877C17.8001 7.08127 17.5938 6.75627 17.4688 6.50002L17.2501 6.03127L17.2688 6.31252C17.2938 6.60002 17.4501 6.97502 17.6938 7.36252C17.8188 7.55627 17.8251 7.58127 17.7251 7.67502C17.6438 7.75627 17.5313 7.77502 17.2313 7.76252C16.2938 7.71252 16.3438 7.71252 16.3251 7.85002C16.2626 8.28127 17.5001 8.45627 17.9813 8.08752V8.08752ZM22.6563 7.81877C22.7938 7.75627 22.9563 7.65002 23.0126 7.58127C23.1188 7.46877 23.1063 7.43127 22.7501 6.73127C22.4188 6.08752 22.3751 6.02502 22.3751 6.21877C22.3751 6.33752 22.4501 6.61877 22.5438 6.84377C22.6688 7.14377 22.6938 7.26877 22.6438 7.31877C22.6001 7.36252 22.3501 7.41252 22.0813 7.44377C21.8126 7.46877 21.5876 7.49377 21.5813 7.49377C21.5313 7.50627 21.5751 7.68127 21.6626 7.80002C21.7376 7.91252 21.8188 7.93752 22.0813 7.93752C22.2626 7.93752 22.5188 7.88127 22.6563 7.81877ZM14.8751 5.10002C15.2501 4.59377 15.6188 4.40627 16.2063 4.41252C16.6251 4.41252 16.6313 4.41252 16.6126 4.25627C16.5813 4.00627 16.2188 3.79377 15.9126 3.84377C15.3688 3.92502 14.6813 4.47502 14.4626 4.99377C14.3126 5.34377 14.3751 5.86252 14.5313 5.58752C14.5626 5.53127 14.7188 5.31252 14.8751 5.10002V5.10002Z" fill="#222222"/>
<path d="M11.7312 8.6438C11.7062 8.62505 11.6875 8.53755 11.6875 8.4563C11.6875 8.06255 11.2188 7.53755 10.7063 7.3688C10.4063 7.2688 9.65625 7.32505 9.50625 7.46255C9.45 7.5188 9.375 7.5438 9.35625 7.5188C9.33125 7.50005 9.3125 7.1063 9.3125 6.6563C9.3125 5.5938 9.4 5.28755 9.83125 4.8313C10.2688 4.3688 11.0312 3.98755 11.5437 3.97505L11.9062 3.9688L11.9625 4.40005C12.0125 4.73755 11.9937 5.03755 11.8875 5.83755C11.7187 7.0938 11.7187 7.21255 11.8875 7.9188C12 8.3938 12.0063 8.5063 11.9438 8.58755C11.85 8.6938 11.7937 8.71255 11.7312 8.6438V8.6438ZM10.4187 3.55005C10.6312 3.1813 11.2062 2.6188 11.7437 2.26255C12.6937 1.62505 13.9688 1.1563 13.9688 1.43755C13.9688 1.48755 13.9125 1.5563 13.8438 1.5938C13.3375 1.85005 12.8063 2.3563 12.5312 2.82505C12.4375 2.98755 12.2875 3.2063 12.1875 3.31255C12.025 3.48755 11.9813 3.50005 11.6125 3.4938C11.3528 3.48847 11.0944 3.53084 10.85 3.6188C10.3313 3.8063 10.2812 3.7938 10.4187 3.55005V3.55005Z" fill="#222222"/>
<path d="M9.31247 26.1062C9.22497 26.0562 9.16247 25.9937 9.16872 25.9625C9.18747 25.8562 9.06872 24.1125 8.99997 23.5312C8.85622 22.3187 8.56247 20.8125 8.30622 19.9687C8.11247 19.3125 7.92497 18.7625 7.86872 18.625C7.82497 18.5375 7.77497 18.4125 7.74372 18.3437C7.51872 17.7937 7.49997 17.7187 7.56247 17.7C7.59997 17.6875 7.79997 17.5437 7.99997 17.3812C8.79997 16.75 10.0375 15.95 10.75 15.6187C10.975 15.5125 11.225 15.3937 11.3062 15.3562C11.4437 15.2875 11.4812 15.3125 11.85 15.7187C12.0687 15.9562 12.25 16.1687 12.25 16.1875C12.25 16.2312 12.2875 16.2125 10.1562 17.1562C9.33122 17.525 8.64372 17.8312 8.63747 17.8437C8.62497 17.8562 8.68747 18.2 8.78122 18.6062C9.13747 20.1875 9.41247 21.8062 9.56247 23.175C9.67497 24.2062 9.63747 26.1875 9.50622 26.1875C9.48747 26.1875 9.39997 26.15 9.31247 26.1062V26.1062ZM19.9875 24.15C19.925 24.0937 19.925 23.7125 19.975 23.45C20.0187 23.2312 20.1 23.1875 20.5562 23.1625C20.8562 23.1375 20.8687 23.1437 20.9312 23.3312C20.9687 23.4312 21 23.6125 21 23.7312C21 23.9187 20.9687 23.9562 20.7687 24.0437C20.4937 24.1562 20.05 24.2187 19.9875 24.15V24.15ZM12.25 23.9375C11.8125 23.8625 11.5875 23.7875 11.3875 23.6562C11.2062 23.5375 11.1437 23.4625 11.2 23.4312C11.2375 23.4062 11.3062 23.4 11.3437 23.425C11.375 23.45 11.7062 23.4687 12.075 23.4687C12.4812 23.4687 12.7687 23.4937 12.8125 23.5375C12.85 23.575 12.875 23.7062 12.8625 23.825L12.8437 24.0375L12.25 23.9375V23.9375ZM13.1 22.775C13.05 22.6437 13.05 21.1062 13.1 20.3875L13.1437 19.8187L13.3812 20.1187L13.625 20.425V21.6187C13.625 22.275 13.6062 22.8125 13.5812 22.8187C13.55 22.8187 13.4437 22.8312 13.3312 22.8437C13.1937 22.8625 13.125 22.8437 13.1 22.775V22.775ZM18.6312 21.8437C17.9562 21.575 16.4937 20.875 16.3312 20.7375C16.2125 20.6375 16.4937 20.1437 16.8812 19.7812C17.3187 19.3687 17.8 19.0437 17.9062 19.0812C18.0562 19.1437 18.6125 20.125 19.0312 21.0687C19.4312 21.9937 19.4812 22.125 19.3937 22.125C19.3625 22.125 19.025 21.9937 18.6312 21.8437ZM20.2187 21.9687C20.3875 21.4812 20.5375 20.4687 20.6 19.45C20.6437 18.775 20.65 18.7375 20.7937 18.6812C21.15 18.55 21.6187 18.6875 21.925 19.0187L22.0687 19.1687L21.9125 19.4437C21.15 20.8125 20.0625 22.425 20.2187 21.9687V21.9687ZM22.9875 16.5312C22.4812 16.1562 21.9687 15.7437 21.8562 15.6312C21.7375 15.5125 21.5562 15.3812 21.4437 15.3437L21.2437 15.2812L21.5812 14.9875L21.9187 14.6937L22.5062 15.2687C22.8312 15.5875 23.2812 16.0062 23.5125 16.2062C23.95 16.5812 24.0687 16.8187 23.9562 17.0937C23.9125 17.2062 23.8187 17.1562 22.9875 16.5312V16.5312Z" fill="#222222"/>
<path d="M16.2501 31.225C15.4438 31.1 14.7688 30.9375 14.7001 30.8563C14.6126 30.75 14.2938 29.625 14.0063 28.4313C13.6063 26.8063 13.1063 23.6125 13.2313 23.5C13.3001 23.4313 14.8626 23.2063 15.8751 23.1188C17.0813 23.0125 19.3751 23.1063 19.5313 23.2625C19.5501 23.275 19.6063 24.0313 19.6563 24.9438C19.7063 25.85 19.7626 26.7063 19.7813 26.8438C19.8001 26.9813 19.8438 27.7625 19.8751 28.575C19.9063 29.3875 19.9688 30.2563 20.0063 30.5063C20.0626 30.8625 20.0563 30.9625 19.9938 31.0063C19.6188 31.2375 17.2376 31.375 16.2501 31.225V31.225ZM20.2813 29.75C20.2688 29.7313 20.2376 29.175 20.2126 28.525L20.1688 27.3375L20.4938 27.2625C20.8688 27.175 20.9376 27.2 20.9376 27.4C20.9376 27.4813 20.9938 27.8063 21.0626 28.1313C21.1313 28.4563 21.2063 28.9063 21.2251 29.1375C21.2688 29.5563 21.2688 29.5563 21.0876 29.6313C20.8438 29.725 20.3126 29.8063 20.2813 29.75V29.75ZM24.4063 26.2563C24.1626 26.2125 24.1626 26.2063 24.3126 26.1438C24.4001 26.1063 24.5688 26.0625 24.6876 26.0375C25.3688 25.9063 25.5063 25.8563 25.4376 25.7875C25.3876 25.7438 25.0313 25.725 24.2876 25.7375L23.2126 25.7563L23.1063 24.7688C23.0438 24.225 22.9563 23.6125 22.9063 23.4063L22.8188 23.0313L22.9876 22.8938C23.0813 22.8125 23.3563 22.675 23.5938 22.5875C23.8376 22.4938 24.2688 22.325 24.5626 22.2C25.2001 21.9375 25.4626 21.9188 25.7438 22.125C26.0188 22.3188 26.2001 22.7313 26.4376 23.6875C26.6376 24.525 26.6688 24.9375 26.5501 25.3313C26.4438 25.6813 26.0376 26.0938 25.7188 26.175C25.3626 26.2688 24.7001 26.3063 24.4063 26.2563V26.2563ZM25.4501 24.6813C25.1188 24.55 24.4876 24.4938 24.1501 24.5625C23.5688 24.6875 23.7688 24.75 24.7063 24.7438C25.3188 24.7438 25.5501 24.725 25.4501 24.6813V24.6813ZM25.3313 23.8813C25.4438 23.8375 25.4188 23.8188 25.1563 23.775C24.5251 23.6688 23.8126 23.7625 23.8126 23.9563C23.8126 24.025 25.1126 23.9625 25.3313 23.8813ZM24.4813 23.1813C24.8063 23.0063 25.0626 22.8563 25.0501 22.8438C25.0063 22.8 24.4188 22.9438 24.1313 23.0625C23.9626 23.1375 23.7438 23.2813 23.6501 23.3875L23.4688 23.5813L23.6813 23.5375C23.7938 23.5188 24.1563 23.3563 24.4813 23.1813V23.1813ZM22.0001 26C22.0001 25.9313 21.6501 23.525 21.5938 23.2375C21.5688 23.0625 21.5688 23.0625 21.9126 23.0625H22.2563L22.3813 23.3438C22.5688 23.7625 22.6813 24.375 22.7313 25.1625L22.7688 25.8563L22.4688 25.9625C22.1188 26.075 22.0001 26.0875 22.0001 26V26ZM19.2188 22.0438C18.3563 21.7625 16.3126 20.8063 16.3126 20.6813C16.3126 20.3563 16.8626 19.7063 17.4751 19.3063L17.8876 19.0438L18.0313 19.225C18.3126 19.5625 19.5063 22.025 19.4251 22.0938C19.4126 22.1 19.3251 22.0813 19.2188 22.0438V22.0438ZM20.2751 21.9063C20.3938 21.5875 20.6126 19.9438 20.6313 19.1375L20.6438 18.75L20.8688 18.6875C21.1876 18.6063 21.5376 18.7 21.7876 18.9438C21.9063 19.0563 22.0001 19.175 22.0001 19.2063C22.0001 19.2875 21.1626 20.6938 20.7001 21.3938C20.3251 21.9625 20.1876 22.125 20.2751 21.9063V21.9063ZM19.7938 21.6438C19.7126 21.4813 19.4688 20.9438 19.2563 20.4625C19.0438 19.975 18.7438 19.3875 18.5876 19.15C18.3376 18.7625 18.3126 18.7063 18.3876 18.575C18.4376 18.475 18.5001 18.4375 18.5813 18.4625C18.6501 18.4813 18.8438 18.4375 19.0126 18.3688L19.3188 18.25L19.7126 18.4688C19.9313 18.5875 20.1501 18.6875 20.2063 18.6875C20.3313 18.6875 20.3313 18.6313 20.2501 19.9125C20.1938 20.8063 20.0563 21.8438 19.9751 21.9188C19.9563 21.9375 19.8751 21.8125 19.7938 21.6438V21.6438ZM19.9438 20.4C20.0501 20.2688 19.9438 20.0938 19.7501 20.0938C19.5563 20.0938 19.4501 20.2688 19.5563 20.4C19.6063 20.4563 19.6876 20.5 19.7501 20.5C19.8126 20.5 19.8938 20.4563 19.9438 20.4ZM19.7126 19.3C19.7938 19.1688 19.7001 18.9813 19.5501 18.95C19.4501 18.9313 19.2501 19.0938 19.2501 19.1875C19.2501 19.2813 19.4501 19.4438 19.5501 19.425C19.6001 19.4125 19.6751 19.3563 19.7126 19.3ZM14.0313 16.7875C13.6251 16.6563 13.1376 16.3875 13.0626 16.25C12.9563 16.0563 13.0376 16 13.2751 16.0938C13.3876 16.1438 13.7376 16.2 14.0563 16.225C14.3688 16.25 14.6376 16.2875 14.6563 16.3125C14.6688 16.3313 14.6501 16.4688 14.6126 16.6125C14.5376 16.9063 14.4688 16.925 14.0313 16.7875ZM18.2501 16.5813C18.0376 16.5063 17.6251 16.2875 17.6251 16.25C17.6251 16.225 17.7688 16.2375 17.9438 16.275C18.2126 16.3313 18.3813 16.3125 19.0376 16.1813C19.4626 16.0875 19.8126 16.025 19.8126 16.0375C19.8126 16.0438 19.6438 16.1813 19.4438 16.3375C19.0938 16.6063 19.0501 16.625 18.7063 16.6188C18.5063 16.6188 18.3001 16.6 18.2501 16.5813V16.5813ZM14.0938 15.8938C13.7751 15.8625 13.0376 15.6438 12.7438 15.5C12.4251 15.3375 12.1313 14.9813 11.8313 14.4063C11.5501 13.8563 11.1626 12.7563 11.0938 12.3063C11.0563 12.0375 11.0626 12.0063 11.3063 11.725C11.5751 11.4188 11.6001 11.3438 11.5001 11.1875C11.4501 11.1063 11.4063 11.1125 11.2063 11.2313C10.6313 11.5625 10.5876 11.5813 10.2876 11.5375C9.83135 11.4688 9.51885 11.1813 9.19385 10.55C8.9501 10.0813 8.9126 9.94377 8.8876 9.51877C8.8626 9.09377 8.88135 8.98127 9.0001 8.74377C9.3126 8.11877 9.7251 7.89377 10.4626 7.93127C10.7251 7.94377 11.0688 8.33127 11.2188 8.78127C11.2813 8.98752 11.3563 9.18127 11.3813 9.20627C11.4563 9.30002 12.0688 9.17502 12.2376 9.03127L12.4001 8.89377L12.2313 8.18127C12.0188 7.27502 12.0188 6.97502 12.2501 5.85627C12.4626 4.82502 12.4751 4.55002 12.3501 4.06252L12.2563 3.71877L12.4563 3.38127C12.9813 2.50627 14.9688 1.10627 16.0626 0.850023C17.5563 0.493773 20.0688 1.15627 21.1438 2.18127C21.4376 2.46252 22.2501 3.48127 22.2501 3.57502C22.2501 3.58127 22.0688 3.59377 21.8501 3.59377C21.5063 3.59377 21.4251 3.61877 21.2813 3.75002C21.1001 3.91877 20.9813 4.16252 21.0313 4.25002C21.0501 4.28127 21.1626 4.26252 21.2813 4.21252C21.7001 4.03752 22.2438 4.16252 22.6813 4.54377C23.2126 5.00002 23.3563 5.55002 23.4126 7.37502C23.4813 9.56877 23.1751 11.1625 22.4001 12.7063C22.2188 13.0563 21.5813 14.0375 21.3251 14.3438C20.8126 14.9625 19.3313 15.6375 18.2876 15.725C17.7001 15.775 17.2251 15.675 16.5313 15.35C15.5688 14.8938 14.9251 14.325 14.1063 13.1938C13.8938 12.9063 13.7126 12.7 13.7001 12.7438C13.6626 12.85 13.9813 13.5 14.2438 13.8438C14.6126 14.3313 15.5001 15.2125 15.8313 15.425L16.1313 15.6125L15.6313 15.6313C15.2188 15.65 15.1063 15.6813 14.9876 15.8C14.8313 15.9375 14.7126 15.95 14.0938 15.8938V15.8938ZM20.1001 13.7813C20.3688 13.7 20.6876 13.475 20.6876 13.375C20.6876 13.35 20.2751 13.3313 19.7688 13.3313C18.3001 13.3375 17.6376 13.1375 17.2001 12.5625C17.0813 12.4063 16.9501 12.275 16.9063 12.2625C16.7251 12.2188 16.7563 12.3875 16.9626 12.6438C17.0876 12.7875 17.3063 13.0563 17.4501 13.2438C17.7501 13.6188 18.0313 13.7938 18.4813 13.875C18.8626 13.9438 19.7313 13.8938 20.1001 13.7813V13.7813ZM20.2376 12.3L20.2188 11.9688L19.3438 11.925C18.4001 11.8813 17.7876 11.7938 17.4438 11.65C17.3251 11.6 17.2188 11.5688 17.2126 11.5813C17.2001 11.5938 17.2751 11.7063 17.3813 11.8313C17.7563 12.2813 18.7251 12.6125 19.7376 12.6188L20.2563 12.625L20.2376 12.3ZM21.4688 12.35C21.6188 12.2625 21.8438 12.0813 21.9688 11.9438C22.2251 11.675 22.5751 11.175 22.5313 11.1375C22.5188 11.125 22.3001 11.225 22.0501 11.3563C21.5688 11.6188 20.9001 11.875 20.6876 11.875C20.5751 11.875 20.5626 11.9188 20.5626 12.225V12.5813L20.8813 12.5438C21.0563 12.5188 21.3188 12.4313 21.4688 12.35V12.35ZM20.3126 11.3313C20.7313 11.225 21.2001 11.0125 21.6938 10.7125C22.0251 10.5125 22.0688 10.4625 22.1563 10.175C22.3001 9.67502 22.2813 9.61252 21.8876 9.20627C21.0313 8.34377 20.1001 7.01252 19.9751 6.48752C19.9563 6.38752 19.8938 6.31252 19.8438 6.31252C19.6126 6.31252 19.8563 7.24377 20.2501 7.90002C20.3688 8.09377 20.6688 8.50002 20.9063 8.78752C21.7501 9.81877 21.7876 9.89377 21.6188 10.2688C21.4813 10.575 19.8188 11.1875 19.3563 11.1C19.0876 11.05 18.9938 10.9375 18.9438 10.6375C18.9001 10.3688 18.8063 10.3438 18.7251 10.575C18.6438 10.8 18.7376 11.175 18.9126 11.3563C19.0626 11.5063 19.0938 11.5125 19.5188 11.4688C19.7688 11.4438 20.1251 11.3813 20.3126 11.3313V11.3313ZM10.2126 9.19377C10.2813 9.11877 10.3626 9.06252 10.4063 9.06252C10.5126 9.06252 10.7126 9.30002 10.8814 9.62502L11.0313 9.90627L11.0501 9.61252C11.0751 9.26252 10.9126 8.90627 10.6251 8.66252C10.2438 8.35002 9.8251 8.38127 9.58135 8.74377C9.4001 9.01252 9.4001 9.10002 9.5751 8.97502C9.6501 8.91877 9.76885 8.87502 9.83135 8.87502C9.93135 8.87502 9.9376 8.90627 9.89385 9.08127C9.81885 9.37502 9.84385 10.0063 9.94385 10.2188C10.0189 10.4 10.0251 10.3813 10.0626 9.86252C10.0876 9.45627 10.1251 9.28752 10.2126 9.19377V9.19377ZM18.0376 8.06252C18.3313 7.76877 18.3188 7.59377 17.9688 7.20002C17.8126 7.02502 17.5813 6.66252 17.4501 6.39377C17.2501 5.96252 17.2188 5.92502 17.2001 6.08752C17.1751 6.27502 17.3938 6.96252 17.5313 7.12502C17.5751 7.17502 17.6563 7.30627 17.7063 7.41252C17.8063 7.61252 17.8063 7.61252 17.6251 7.68752C17.4938 7.74377 17.3001 7.75002 16.9563 7.71252C16.6876 7.68752 16.4438 7.66252 16.4063 7.65627C16.2938 7.65627 16.3001 7.94377 16.4126 8.06877C16.5751 8.25002 16.8501 8.31252 17.3626 8.28752C17.7813 8.26877 17.8376 8.25002 18.0376 8.06252ZM22.7938 7.78127C22.9438 7.68752 23.0876 7.57502 23.1063 7.53127C23.1313 7.45002 22.3938 5.87502 22.3251 5.87502C22.2438 5.87502 22.3813 6.57502 22.5313 6.90002C22.7251 7.33752 22.7126 7.35002 22.1251 7.40627C21.9001 7.43127 21.6813 7.45627 21.6438 7.46877C21.5063 7.51252 21.5563 7.73752 21.7376 7.87502C21.8751 7.98752 21.9563 8.00627 22.2126 7.97502C22.3751 7.95627 22.6376 7.86877 22.7938 7.78127V7.78127ZM14.6813 5.41252C14.9063 5.03127 15.2876 4.65627 15.6001 4.52502C15.7126 4.47502 15.9876 4.43752 16.2126 4.43752C16.4376 4.43752 16.6376 4.40627 16.6563 4.37502C16.7813 4.16877 16.3626 3.81252 15.9876 3.81252C15.7001 3.81252 15.1876 4.07502 14.8688 4.39377C14.6063 4.65627 14.3126 5.18127 14.3126 5.39377C14.3126 5.50627 14.4188 5.75002 14.4688 5.75002C14.4813 5.75002 14.5751 5.60002 14.6813 5.41252V5.41252Z" fill="#222222"/>
<path d="M9.33749 7.15005C9.28749 6.72505 9.33749 5.8063 9.43749 5.48755C9.64374 4.78755 10.5937 4.1188 11.6 3.96255C11.8312 3.9313 11.8625 3.93755 11.8937 4.0688C11.9562 4.2938 11.95 4.31255 11.7937 4.31255C11.55 4.31255 10.8625 4.56255 10.55 4.76255C9.79999 5.23755 9.35624 6.21255 9.47499 7.1188C9.49999 7.3063 9.48749 7.43755 9.44999 7.46255C9.40624 7.48755 9.36874 7.3688 9.33749 7.15005V7.15005ZM10.375 3.68755C10.375 3.66255 10.5062 3.4688 10.6625 3.2563C11 2.8063 11.7 2.26255 12.425 1.88755C12.9937 1.5938 13.7937 1.2938 13.8812 1.35005C13.9937 1.41255 13.9312 1.5438 13.7562 1.6313C12.425 2.2813 11.9687 2.5813 11.3812 3.1938C11.1062 3.47505 10.9562 3.57505 10.7062 3.65005C10.525 3.70005 10.375 3.7188 10.375 3.68755Z" fill="#222222"/>
<path d="M18.25 16.5688C18.0312 16.5 17.7 16.325 17.6562 16.25C17.6312 16.2063 17.675 16.2063 17.7812 16.25C18.0375 16.3438 18.4062 16.325 19.1437 16.1625C19.5125 16.0813 19.8125 16.025 19.8125 16.0313C19.8125 16.0375 19.6437 16.175 19.4437 16.3375C19.1062 16.6 19.0437 16.625 18.7375 16.6188C18.5562 16.6188 18.3375 16.5938 18.25 16.5688V16.5688ZM14.0187 15.8688C13.5125 15.8063 12.8625 15.5813 12.5687 15.375C12.2312 15.1313 11.9 14.6125 11.575 13.8375C11.3312 13.2438 11.0625 12.3438 11.0625 12.1188C11.0625 12.0563 11.175 11.875 11.3187 11.7125C11.5812 11.4125 11.625 11.175 11.425 11.1375C11.3687 11.125 11.1625 11.2188 10.975 11.35C10.675 11.55 10.5937 11.575 10.3687 11.5438C9.94373 11.4875 9.56248 11.2063 9.29373 10.75C8.66248 9.66251 8.74998 8.65626 9.52498 8.14376C9.78748 7.96251 9.88123 7.93751 10.2187 7.93751C10.525 7.93751 10.6437 7.96876 10.7812 8.07501C10.9562 8.21251 11.3125 8.88126 11.3125 9.08126C11.3125 9.14376 11.3562 9.20626 11.4062 9.22501C11.5812 9.29376 12.0625 9.18126 12.2312 9.03751L12.3937 8.89376L12.2312 8.16876C12.0187 7.25001 12.0187 6.98751 12.25 5.88126C12.4625 4.87501 12.4812 4.47501 12.3437 4.02501C12.2562 3.73126 12.2625 3.71251 12.4062 3.46251C12.7875 2.81251 13.6875 2.03751 14.8125 1.40001C15.65 0.931262 16.0312 0.806263 16.8125 0.768763C17.9125 0.712513 18.9937 0.962512 20.225 1.56251C20.7687 1.82501 20.9187 1.93126 21.2875 2.33126C21.525 2.58751 21.8375 2.96876 21.9875 3.18126L22.2562 3.56251H21.9C21.5 3.56251 21.2562 3.68126 21.1 3.93751C20.9625 4.17501 20.9687 4.33751 21.1125 4.28126C21.6125 4.06876 22.0062 4.11251 22.5125 4.43126C23.125 4.81876 23.2812 5.27501 23.3875 6.93126C23.5187 9.05626 23.2312 10.8875 22.5312 12.4188C22.25 13.0313 21.5062 14.1625 21.175 14.475C20.7 14.9313 19.8312 15.375 19 15.5938C18.4375 15.7438 17.5625 15.7438 17.125 15.6C16.0437 15.2375 15.1562 14.5563 14.2875 13.4188C13.9812 13.0188 13.7187 12.7 13.7 12.7125C13.6437 12.7688 13.8875 13.3563 14.0812 13.6375C14.4312 14.1438 15.3562 15.1 15.7625 15.375L16.15 15.6313L15.8187 15.6063C15.4187 15.5688 15.1562 15.6375 14.9687 15.8125C14.825 15.95 14.725 15.95 14.0187 15.8688V15.8688ZM19.9312 13.8313C20.3125 13.75 20.6875 13.5188 20.6875 13.3625C20.6875 13.3375 20.275 13.3125 19.7687 13.3125C18.7062 13.3188 18.4062 13.2813 17.95 13.1125C17.5687 12.9688 17.3125 12.7688 17.125 12.4688C17.0437 12.3438 16.9375 12.25 16.8687 12.25C16.65 12.25 16.6875 12.3063 17.5062 13.3313C17.6125 13.4625 17.7625 13.6125 17.85 13.6625C18.25 13.9313 19.1312 14 19.9312 13.8313ZM20.25 12.3313C20.25 12.1188 20.2187 11.9875 20.175 11.9688C20.1312 11.9563 19.7312 11.9313 19.2812 11.9063C18.2562 11.8625 17.7437 11.775 17.2875 11.5938C17.1875 11.55 17.1812 11.5625 17.2437 11.6688C17.5375 12.2313 18.7062 12.65 19.9875 12.6625H20.25V12.3313V12.3313ZM21.35 12.4063C21.5312 12.3313 21.7875 12.15 21.9312 12.0063C22.1687 11.7688 22.5812 11.1813 22.5375 11.1375C22.525 11.1313 22.2312 11.2625 21.8812 11.4313C21.5312 11.6 21.0937 11.775 20.9062 11.8125L20.5625 11.8813V12.6375L20.8 12.5938C20.925 12.575 21.175 12.4875 21.35 12.4063V12.4063ZM20.3875 11.3375C20.7562 11.225 21.1687 11.0313 21.7 10.7125C22 10.5313 22.0687 10.45 22.15 10.2063C22.3062 9.75626 22.2812 9.53126 22.0625 9.36251C21.4937 8.91876 20.225 7.20626 20.0312 6.62501C19.9687 6.43126 19.8937 6.31251 19.8312 6.31251C19.75 6.31251 19.7375 6.36876 19.775 6.67501C19.8375 7.20001 20.275 8.03751 20.8437 8.71876C21.5812 9.60001 21.6875 9.75626 21.6875 9.94376C21.6875 10.3 21.5875 10.3938 20.8812 10.7063C20.1562 11.025 19.7937 11.1125 19.4125 11.0813C19.1 11.0563 19.0062 10.975 18.9625 10.675C18.9125 10.3875 18.8437 10.325 18.7562 10.4938C18.6187 10.75 18.6875 11.1188 18.9312 11.4C19.0187 11.5 19.0937 11.5063 19.5437 11.475C19.825 11.45 20.2062 11.3875 20.3875 11.3375V11.3375ZM10.2375 9.17501C10.3625 9.05001 10.375 9.05001 10.525 9.15001C10.6125 9.20626 10.7625 9.40001 10.8562 9.58126L11.0312 9.90626L11.05 9.61251C11.1 8.86251 10.2812 8.17501 9.76248 8.53751C9.61248 8.63751 9.40623 8.98751 9.46248 9.04376C9.48123 9.06251 9.53748 9.03126 9.59373 8.97501C9.64998 8.91876 9.74998 8.87501 9.82498 8.87501C9.93123 8.87501 9.94373 8.90001 9.89373 9.08126C9.81873 9.38751 9.84373 10.075 9.94373 10.25C10.025 10.3938 10.0312 10.3688 10.0687 9.85626C10.1 9.41251 10.1312 9.27501 10.2375 9.17501ZM17.85 8.21251C18.3375 7.98126 18.375 7.63126 17.9687 7.19376C17.8187 7.03126 17.5875 6.67501 17.4562 6.40001C17.25 5.96251 17.2187 5.92501 17.2 6.08751C17.1687 6.31876 17.3375 6.83751 17.5687 7.19376C17.6687 7.35001 17.75 7.51251 17.75 7.55001C17.75 7.75001 17.2125 7.79376 16.55 7.65001C16.35 7.60626 16.275 7.71876 16.3375 7.96251C16.4125 8.27501 17.3812 8.43126 17.85 8.21251V8.21251ZM22.7625 7.80001C23.1875 7.56251 23.1875 7.55001 22.75 6.66876C22.5375 6.23126 22.35 5.87501 22.3312 5.87501C22.2437 5.87501 22.3812 6.58126 22.5312 6.90626C22.7125 7.30626 22.6875 7.36876 22.3437 7.38126C22.1 7.38751 21.7375 7.43126 21.6437 7.46876C21.5062 7.51876 21.5562 7.73751 21.7375 7.87501C21.875 7.98751 21.9562 8.00626 22.2062 7.97501C22.375 7.95626 22.625 7.87501 22.7625 7.80001ZM14.65 5.48126C14.7187 5.33751 14.9187 5.07501 15.0875 4.90001C15.4562 4.53751 15.8187 4.40626 16.3125 4.45001C16.575 4.47501 16.6312 4.46251 16.6562 4.36876C16.7437 4.10626 16.3812 3.81251 15.9875 3.81251C15.475 3.81251 14.7375 4.36876 14.4625 4.95626C14.3 5.31251 14.2812 5.45001 14.375 5.63126C14.4687 5.80626 14.5187 5.78126 14.65 5.48126Z" fill="#5CDEFF"/>
<path d="M16.6875 31.275C16.6 31.2625 16.3187 31.2188 16.0625 31.1813C15.4875 31.1 14.8 30.9375 14.725 30.8688C14.5937 30.75 14.0375 28.7063 13.7562 27.3C13.55 26.2938 13.2625 24.35 13.2375 23.8125L13.2187 23.475L13.5 23.425C15.1312 23.1313 17.5187 22.9875 18.7187 23.1188C19.1 23.1625 19.4437 23.2313 19.4812 23.2688C19.5562 23.3438 19.6687 24.825 19.8125 27.75C19.8812 29.15 19.9875 30.5625 20.0375 30.8188C20.075 30.975 20.0562 30.9875 19.6687 31.0813C18.9187 31.2688 17.3562 31.3688 16.6875 31.275V31.275ZM20.2312 28.9625C20.2062 28.5188 20.1875 27.975 20.1875 27.7438V27.3375L20.5187 27.2688C20.6937 27.2313 20.8562 27.2125 20.8687 27.2188C20.9125 27.2625 21.2437 29.1063 21.25 29.3313C21.25 29.6 21.1312 29.675 20.5875 29.7313L20.2687 29.7625L20.2312 28.9625V28.9625ZM24.4875 26.2688C24.3562 26.2563 24.25 26.2188 24.25 26.1813C24.25 26.15 24.2625 26.125 24.275 26.125C24.3062 26.125 25.15 25.9563 25.3687 25.9C25.4875 25.875 25.5 25.85 25.4437 25.7938C25.3875 25.7375 25.0625 25.725 24.2937 25.7375L23.2125 25.75L23.1062 24.7375C23.0437 24.175 22.9562 23.5625 22.9062 23.375L22.8125 23.0313L22.9812 22.8938C23.075 22.8125 23.4812 22.6375 23.875 22.4938C24.2687 22.35 24.7312 22.1625 24.8937 22.0813C25.3562 21.85 25.8187 22.0188 26.0625 22.5C26.2375 22.8375 26.625 24.3875 26.625 24.7375C26.625 25.4375 26.2437 26.0438 25.7187 26.175C25.4062 26.2563 24.7875 26.3 24.4875 26.2688V26.2688ZM25.6125 24.7188C25.5937 24.7 25.3562 24.6438 25.0875 24.5875C24.4937 24.475 23.8125 24.5313 23.8125 24.6938C23.8125 24.725 24.225 24.75 24.7312 24.75C25.2312 24.75 25.6312 24.7375 25.6125 24.7188V24.7188ZM25.375 23.875C25.4812 23.8125 24.9937 23.725 24.5312 23.7188C24.2062 23.7188 23.8125 23.8438 23.8125 23.9563C23.8125 24.025 25.225 23.9563 25.375 23.875ZM24.1312 23.375C24.3509 23.2523 24.5739 23.1356 24.8 23.025C24.9812 22.9375 25.1187 22.85 25.1062 22.8375C25.0937 22.8188 24.875 22.85 24.6187 22.9C24.175 22.9938 23.5 23.3563 23.5 23.5C23.5 23.6188 23.8 23.5625 24.1312 23.375ZM21.9687 25.7063C21.95 25.5063 21.8625 24.9063 21.775 24.375C21.6937 23.8438 21.625 23.3313 21.625 23.2375C21.625 23.0688 21.6375 23.0625 21.9437 23.0625C22.2562 23.0625 22.2562 23.0625 22.3812 23.3438C22.5625 23.7563 22.6812 24.3688 22.725 25.1625L22.7687 25.85L22.4375 25.9563C22.2562 26.0125 22.0875 26.0625 22.0625 26.0625C22.0375 26.0625 21.9937 25.9 21.9687 25.7063ZM19.7375 21.5C19.6125 21.2438 19.3687 20.7 19.1875 20.3C19.0125 19.9 18.7375 19.3813 18.5875 19.15C18.4375 18.9188 18.3125 18.7188 18.3125 18.7C18.3125 18.6125 18.5187 18.45 18.5937 18.475C18.6375 18.4938 18.775 18.4625 18.9062 18.4125C19.2437 18.2688 19.4312 18.2875 19.75 18.5C19.9062 18.6 20.0937 18.6875 20.175 18.6875C20.3125 18.6875 20.3125 18.6938 20.2812 19.3938C20.2312 20.375 20.125 21.3125 20.0312 21.6688L19.95 21.9688L19.7375 21.5ZM19.9437 20.4C20.05 20.2688 19.9437 20.0938 19.75 20.0938C19.5562 20.0938 19.45 20.2688 19.5562 20.4C19.6062 20.4563 19.6875 20.5 19.75 20.5C19.8125 20.5 19.8937 20.4563 19.9437 20.4ZM19.7125 19.3C19.7937 19.1688 19.7 18.9813 19.55 18.95C19.45 18.9313 19.25 19.0938 19.25 19.1875C19.25 19.2813 19.45 19.4438 19.55 19.425C19.6 19.4125 19.675 19.3563 19.7125 19.3ZM13.95 16.75C13.3187 16.525 12.925 16.2313 13.0312 16.0625C13.05 16.0313 13.1562 16.0438 13.2687 16.0938C13.375 16.1375 13.7312 16.2 14.05 16.2375C14.3687 16.2688 14.6437 16.3063 14.6562 16.325C14.6687 16.3375 14.65 16.4688 14.6125 16.6125C14.5375 16.9188 14.4625 16.9375 13.95 16.75V16.75ZM12.7062 15.4375C12.4187 15.2688 12.45 15.225 12.7375 15.3875C13.025 15.5563 13.0375 15.5625 12.9625 15.5625C12.9312 15.5625 12.8125 15.5063 12.7062 15.4375ZM11.8375 14.3688C11.75 14.1938 11.6875 14.0375 11.7 14.025C11.7125 14.0125 11.8 14.1563 11.8937 14.3438C11.9875 14.5313 12.05 14.6875 12.0312 14.6875C12.0125 14.6875 11.9312 14.5438 11.8375 14.3688ZM11.125 11.9938C11.125 11.9438 11.2062 11.85 11.3 11.7875L11.4687 11.6688L11.3125 11.85C11.225 11.95 11.15 12.0438 11.1437 12.0563C11.1312 12.0688 11.125 12.0438 11.125 11.9938ZM8.89372 9.40627C8.89372 9.26877 8.90622 9.21877 8.91872 9.30002C8.93122 9.37502 8.93122 9.48752 8.91872 9.55002C8.89997 9.60627 8.88747 9.54377 8.89372 9.40627ZM9.31247 8.34377C9.43122 8.22502 9.53747 8.12502 9.55622 8.12502C9.57497 8.12502 9.49372 8.22502 9.37497 8.34377C9.25622 8.46252 9.14997 8.56252 9.13122 8.56252C9.11247 8.56252 9.19372 8.46252 9.31247 8.34377ZM10.8937 8.29377C10.8687 8.25002 10.775 8.16252 10.6875 8.10627C10.6062 8.05002 10.5562 8.00002 10.5812 8.00002C10.6687 8.00002 10.925 8.19377 10.9625 8.28752C11.0062 8.40002 10.9625 8.40002 10.8937 8.29377ZM10.1125 7.95627C10.1875 7.94377 10.3 7.94377 10.3625 7.95627C10.4187 7.97502 10.3562 7.98752 10.2187 7.98127C10.0812 7.98127 10.0312 7.96877 10.1125 7.95627ZM9.34372 7.08752C9.28122 6.53752 9.34372 5.80002 9.47497 5.40627C9.68122 4.81252 10.4812 4.22502 11.3687 4.02502C11.6187 3.96877 11.8312 3.93752 11.8437 3.95002C11.8625 3.96252 11.8812 4.03752 11.8875 4.11877C11.9062 4.24377 11.8625 4.27502 11.45 4.38127C10.8375 4.53752 10.425 4.76877 10.0625 5.16877C9.63747 5.63752 9.48122 6.06252 9.46872 6.82502C9.46247 7.16252 9.44372 7.45002 9.42497 7.47502C9.39997 7.49377 9.36872 7.31877 9.34372 7.08752ZM14.5437 4.65627C14.6187 4.55627 14.7687 4.38752 14.8812 4.28127C15.0375 4.14377 15.0187 4.17502 14.8187 4.40627C14.45 4.82502 14.3937 4.87502 14.5437 4.65627ZM10.375 3.71877C10.375 3.62502 10.6812 3.22502 10.9812 2.91877C11.5625 2.33127 12.4 1.81877 13.3687 1.47502C13.6875 1.35627 13.85 1.32502 13.9 1.37502C14.0062 1.48127 13.875 1.57502 13.0875 1.95627C12.4375 2.26877 11.9 2.65002 11.4375 3.12502C11.2125 3.35627 10.975 3.56252 10.9062 3.58127C10.8375 3.60002 10.6875 3.64377 10.5812 3.67502C10.4687 3.71252 10.375 3.73127 10.375 3.71877V3.71877ZM22.0625 3.43752C22.025 3.36877 22.0187 3.31252 22.0437 3.31252C22.075 3.31252 22.1312 3.36877 22.175 3.43752C22.2187 3.50627 22.225 3.56252 22.1875 3.56252C22.1562 3.56252 22.1 3.50627 22.0625 3.43752ZM13.0312 2.75002C13.2687 2.51252 13.4812 2.31252 13.4937 2.31252C13.5125 2.31252 13.3312 2.51252 13.0937 2.75002C12.8562 2.99377 12.6437 3.18752 12.6312 3.18752C12.6125 3.18752 12.7937 2.99377 13.0312 2.75002ZM13.5875 2.26252C13.6375 2.18127 14 1.91252 14 1.95627C14 1.97502 13.8937 2.06252 13.7687 2.16252C13.6437 2.25627 13.5625 2.30627 13.5875 2.26252ZM19.875 1.46877C19.7875 1.41877 19.75 1.38127 19.7812 1.38127C19.8187 1.38127 19.9125 1.41877 20 1.46877C20.0875 1.51877 20.1312 1.55627 20.0937 1.55627C20.0625 1.55627 19.9625 1.51877 19.875 1.46877ZM15 1.34377C15 1.30002 15.5062 1.05002 15.5375 1.07502C15.55 1.09377 15.4312 1.16252 15.2812 1.23752C15.125 1.31252 15 1.36252 15 1.34377ZM16.925 0.768774C17 0.756274 17.125 0.756274 17.2062 0.768774C17.2812 0.781274 17.2187 0.793774 17.0625 0.793774C16.9062 0.793774 16.8437 0.781274 16.925 0.768774Z" fill="#5CDEFF"/>
</svg>
