<svg width="32" height="32" viewBox="0 0 32 32" fill="none" xmlns="http://www.w3.org/2000/svg">
<path fill-rule="evenodd" clip-rule="evenodd" d="M22.6227 14.3205C22.5302 13.123 22.2487 11.9682 21.8572 10.837C21.0462 8.31098 19.7447 6.07548 17.9115 4.15198C17.448 3.66548 16.9325 3.21973 16.6092 2.61423C16.4047 2.23123 16.21 1.84298 16.0107 1.45698L15.8845 1.13873C15.8632 1.21173 15.8497 1.23773 15.849 1.26398C15.8327 1.89323 15.4762 2.31998 15.0322 2.71823C14.533 3.16648 14.0682 3.65298 13.5885 4.12273L12.1132 6.06348C11.7152 6.79473 11.3177 7.52598 10.9202 8.25723L10.1227 10.4115L10.0987 10.445C9.65971 11.887 9.44321 13.3695 9.33671 14.867C9.29671 15.4297 9.34221 16.0007 9.37396 16.5665C9.41921 17.3752 9.55971 18.1702 9.77046 18.9527C10.536 21.7957 12.0895 24.154 14.2132 26.1575C14.608 26.5297 15.013 26.8682 15.425 27.2225C15.4955 26.9812 15.5517 26.74 15.6157 26.4987C15.6797 26.2585 15.7445 26.0195 15.7877 25.7785C15.7442 26.0195 15.6955 26.2585 15.6472 26.4987L15.4407 27.2225L15.6252 27.8477L15.7962 28.8187L15.8777 29.832C15.877 30.0377 15.8687 30.244 15.8812 30.4495C15.8842 30.502 15.9532 30.5505 15.9917 30.601L16.3357 30.7217L16.6942 30.8612L16.6327 29.9605L16.63 29.0735L16.7537 27.7222L16.8435 27.428L17.1002 26.973C17.4172 26.718 17.7575 26.4865 18.0462 26.2027C18.5687 25.6892 19.09 25.1692 19.5575 24.607C20.166 23.8782 20.6855 23.0796 21.1052 22.228C21.3857 21.657 21.6497 21.0745 21.8682 20.4777C22.0607 19.9517 22.18 19.399 22.3317 18.858C22.3452 18.819 22.3632 18.7807 22.3717 18.741C22.6852 17.2807 22.738 15.8057 22.6227 14.3205V14.3205ZM16.723 26.6642L16.5217 26.2235L16.723 26.6642L17.0187 26.9167L16.723 26.6642Z" fill="#5CDEFF"/>
</svg>
