<svg width="32" height="32" viewBox="0 0 32 32" fill="none" xmlns="http://www.w3.org/2000/svg">
<path fill-rule="evenodd" clip-rule="evenodd" d="M8.99272 27.8325L29.4822 30.6295C27.1387 26.728 24.8555 22.9263 22.554 19.0935L8.99272 27.8325ZM31.4202 6.23677C30.815 7.14577 30.2085 8.05402 29.604 8.96352C27.5277 12.0866 25.4524 15.2103 23.3782 18.3348C23.2627 18.5088 23.113 18.6468 23.2757 18.915C25.2797 22.2243 27.268 25.5433 29.2612 28.8593C29.5757 29.383 29.8937 29.9048 30.3005 30.4073L31.509 6.26227L31.4202 6.23677V6.23677ZM4.06297 16.555C4.15672 16.6438 4.39072 16.6955 4.49972 16.6418C6.42197 15.697 8.35647 14.7733 10.2367 13.7508C10.85 13.4175 11.3215 12.82 11.8497 12.3355C13.599 10.7313 15.3455 9.12377 17.0912 7.51602C17.198 7.41727 17.3245 7.32177 17.3882 7.19727C18.0152 5.97177 18.6315 4.74002 19.2695 3.47277C18.5087 3.18677 17.7875 2.90702 17.0572 2.65252C16.9582 2.61802 16.8022 2.68652 16.695 2.74627C15.0047 3.69052 13.2827 4.58452 11.6462 5.61427C10.8275 6.12952 10.1605 6.88877 9.43547 7.55002C8.26697 8.61652 7.09997 9.68552 5.94847 10.7705C5.64126 11.0618 5.36573 11.3848 5.12647 11.734C4.33897 12.8808 3.57497 14.044 2.77597 15.2403C3.22247 15.702 3.62847 16.1435 4.06297 16.555V16.555ZM11.0885 14.9873L8.19947 27.193L21.7745 18.4463L11.0885 14.9873ZM30.2462 6.27577L18.7087 8.20327L22.6242 17.7273C25.1795 13.8875 27.6842 10.1248 30.2462 6.27577V6.27577ZM11.249 14.161L21.722 17.561C20.4095 14.3635 19.142 11.2778 17.8482 8.12677L11.249 14.161ZM4.20772 18.9108L0.542223 27.6728L7.52347 27.4665L4.20772 18.9108V18.9108ZM7.60597 25.4348L7.69247 25.4158C8.53072 21.9305 9.38097 18.4693 10.2367 14.8478L4.63597 17.7588C5.59072 20.2403 6.60872 22.858 7.60597 25.4348ZM28.8377 5.71052C27.723 5.41527 26.6082 5.11902 25.493 4.82577C23.89 4.40427 22.2857 3.98802 20.6837 3.56277C20.4835 3.50952 20.3387 3.47477 20.221 3.71602C19.6547 4.87602 19.071 6.02727 18.4957 7.18302C18.478 7.21877 18.4817 7.26502 18.468 7.35477L28.8355 5.78352L28.8377 5.71052ZM22.3705 3.07202L31.4562 5.58552L29.955 1.30802L22.3837 2.98677L22.3705 3.07202V3.07202ZM8.37622 28.5018C7.25097 28.372 6.09572 28.4913 4.95447 28.511C4.01697 28.5268 3.07947 28.5625 2.14197 28.5918C2.04547 28.5948 1.94922 28.6143 1.85297 28.7183C9.60372 29.4348 17.3542 30.1513 25.1047 30.8683L25.1205 30.7648L17.6667 29.7473C14.5707 29.3245 11.48 28.8595 8.37622 28.5018V28.5018ZM0.695473 24.9985C1.69422 22.681 2.68872 20.362 3.69147 18.0463C3.79172 17.814 3.78397 17.6563 3.58772 17.4693C3.16822 17.07 2.77847 16.6398 2.31997 16.1628C1.70022 19.2228 1.09572 22.207 0.490723 25.191L0.558473 25.2228C0.604723 25.1485 0.661223 25.0783 0.695473 24.9985V24.9985ZM20.3805 2.46027C22.0647 2.02577 23.7735 1.68602 25.4722 1.30702C25.5822 1.28227 25.6897 1.24602 25.798 1.21502L25.7812 1.13202L18.4827 2.11402C19.168 2.41327 19.696 2.63677 20.3805 2.46027V2.46027Z" fill="#5CDEFF"/>
</svg>
